<?xml version="1.0" encoding="UTF-8"?>
<svg width="16px" height="12px" viewBox="0 0 16 12" version="1.1" xmlns="http://www.w3.org/2000/svg" xmlns:xlink="http://www.w3.org/1999/xlink">
    <title>🌀 Icon </title>
    <g id="Window" stroke="none" stroke-width="1" fill="none" fill-rule="evenodd">
        <g id="Specifications" transform="translate(-142.000000, -2413.000000)">
            <g id="Text-field" transform="translate(133.000000, 2345.000000)">
                <g id="Group" transform="translate(9.000000, 66.000000)">
                    <rect id="container" x="0" y="0" width="16" height="16"></rect>
                    <g id="Assets" transform="translate(-0.750000, 1.250000)" fill="#222222">
                        <path d="M14.75,0.75 C15.8545695,0.75 16.75,1.6454305 16.75,2.75 L16.75,10.75 C16.75,11.8545695 15.8545695,12.75 14.75,12.75 L2.75,12.75 C1.6454305,12.75 0.75,11.8545695 0.75,10.75 L0.75,2.75 C0.75,1.6454305 1.6454305,0.75 2.75,0.75 L14.75,0.75 Z M15.75,4.287 L9.06242348,9.64037363 L9.0393804,9.65790667 C9.02516088,9.66800496 9.01049994,9.67728869 8.99546788,9.68575005 C8.97820782,9.69511208 8.96908928,9.69967981 8.9598778,9.70394741 C8.94578595,9.71044429 8.93135616,9.71629765 8.91671692,9.72145873 C8.90595397,9.72534003 8.89498179,9.72879588 8.88393531,9.73186072 C8.86694567,9.73647055 8.84981935,9.74025831 8.83255163,9.74314292 C8.81983774,9.74535315 8.80677656,9.74700525 8.79369048,9.74814087 C8.77940039,9.74934504 8.76501315,9.74999088 8.75061206,9.75001755 C8.73575335,9.75002337 8.72103004,9.74937999 8.70636595,9.74809326 C8.69332014,9.74701629 8.68025864,9.74536673 8.66725419,9.7431971 C8.65027604,9.74027772 8.63314898,9.7364933 8.61624028,9.73181426 C8.60511137,9.72882408 8.59413851,9.72537036 8.5832606,9.7215233 C8.5696501,9.7166555 8.55610934,9.7112114 8.54279621,9.70516371 C8.53295361,9.70069739 8.52284445,9.695678 8.51286589,9.69028885 L8.50182739,9.68421645 C8.49004755,9.67748824 8.47849958,9.67025226 8.46721759,9.66251229 L8.43765248,9.6404344 L1.75,4.29 L1.75,10.75 C1.75,11.3022847 2.19771525,11.75 2.75,11.75 L14.75,11.75 C15.3022847,11.75 15.75,11.3022847 15.75,10.75 L15.75,4.287 Z M14.75,1.75 L2.75,1.75 C2.19771525,1.75 1.75,2.19771525 1.75,2.75 L1.75,3.009 L8.749,8.609 L15.75,3.006 L15.75,2.75 C15.75,2.19771525 15.3022847,1.75 14.75,1.75 Z" id="Mail"></path>
                    </g>
                </g>
            </g>
        </g>
    </g>
</svg>